{
	"asset":{
		"generator":"Khronos glTF Blender I/O v5.0.21",
		"version":"2.0"
	},
	"scene":0,
	"scenes":[
		{
			"name":"Scene",
			"nodes":[
				8
			]
		}
	],
	"nodes":[
		{
			"mesh":0,
			"name":"Object_6"
		},
		{
			"children":[
				0
			],
			"name":"Circle.001_1",
			"scale":[
				0.040175989270210266,
				0.040175989270210266,
				0.040175989270210266
			],
			"translation":[
				0,
				0.9985180497169495,
				0
			]
		},
		{
			"mesh":1,
			"name":"Object_8"
		},
		{
			"children":[
				2
			],
			"name":"Circle_2",
			"scale":[
				0.14797599613666534,
				0.14797599613666534,
				0.14797599613666534
			],
			"translation":[
				0,
				0.0007909999694675207,
				0
			]
		},
		{
			"mesh":2,
			"name":"Can_body"
		},
		{
			"children":[
				4
			],
			"name":"C\ufffd\ufffdrculo_0",
			"scale":[
				0.6111640930175781,
				0.6111640930175781,
				0.6111640930175781
			]
		},
		{
			"children":[
				1,
				3,
				5
			],
			"name":"GLTF_SceneRootNode",
			"rotation":[
				0.70710688829422,
				0,
				0,
				0.7071066498756409
			]
		},
		{
			"children":[
				6
			],
			"name":"root"
		},
		{
			"children":[
				7
			],
			"name":"Sketchfab_model",
			"rotation":[
				-0.70710688829422,
				0,
				0,
				0.7071066498756409
			]
		}
	],
	"materials":[
		{
			"doubleSided":true,
			"name":"Material",
			"pbrMetallicRoughness":{
				"baseColorFactor":[
					0.7666021585464478,
					0.7334966659545898,
					0.8005601167678833,
					1
				],
				"metallicFactor":0,
				"roughnessFactor":0.5
			}
		}
	],
	"meshes":[
		{
			"name":"Object_1",
			"primitives":[
				{
					"attributes":{
						"POSITION":0,
						"NORMAL":1,
						"TEXCOORD_0":2
					},
					"indices":3,
					"material":0
				}
			]
		},
		{
			"name":"Object_2",
			"primitives":[
				{
					"attributes":{
						"POSITION":4,
						"NORMAL":5,
						"TEXCOORD_0":6
					},
					"indices":7,
					"material":0
				}
			]
		},
		{
			"name":"Object_0",
			"primitives":[
				{
					"attributes":{
						"POSITION":8,
						"NORMAL":9,
						"TEXCOORD_0":10
					},
					"indices":11,
					"material":0
				}
			]
		}
	],
	"accessors":[
		{
			"bufferView":0,
			"componentType":5126,
			"count":659,
			"max":[
				1.036877989768982,
				18.646251678466797,
				1.036877989768982
			],
			"min":[
				-1.036877989768982,
				17.984933853149414,
				-1.036877989768982
			],
			"type":"VEC3"
		},
		{
			"bufferView":1,
			"componentType":5126,
			"count":659,
			"type":"VEC3"
		},
		{
			"bufferView":2,
			"componentType":5126,
			"count":659,
			"type":"VEC2"
		},
		{
			"bufferView":3,
			"componentType":5123,
			"count":3360,
			"type":"SCALAR"
		},
		{
			"bufferView":4,
			"componentType":5126,
			"count":6703,
			"max":[
				1.013401746749878,
				11.808180809020996,
				2.224416732788086
			],
			"min":[
				-1.0134016275405884,
				11.674129486083984,
				-0.9703840613365173
			],
			"type":"VEC3"
		},
		{
			"bufferView":5,
			"componentType":5126,
			"count":6703,
			"type":"VEC3"
		},
		{
			"bufferView":6,
			"componentType":5126,
			"count":6703,
			"type":"VEC2"
		},
		{
			"bufferView":7,
			"componentType":5123,
			"count":28848,
			"type":"SCALAR"
		},
		{
			"bufferView":8,
			"componentType":5126,
			"count":56866,
			"max":[
				0.9553419947624207,
				2.91701340675354,
				0.9553419947624207
			],
			"min":[
				-0.9553419947624207,
				-1.773680567741394,
				-0.9553419947624207
			],
			"type":"VEC3"
		},
		{
			"bufferView":9,
			"componentType":5126,
			"count":56866,
			"type":"VEC3"
		},
		{
			"bufferView":10,
			"componentType":5126,
			"count":56866,
			"type":"VEC2"
		},
		{
			"bufferView":11,
			"componentType":5123,
			"count":241152,
			"type":"SCALAR"
		}
	],
	"bufferViews":[
		{
			"buffer":0,
			"byteLength":7908,
			"byteOffset":0,
			"target":34962
		},
		{
			"buffer":0,
			"byteLength":7908,
			"byteOffset":7908,
			"target":34962
		},
		{
			"buffer":0,
			"byteLength":5272,
			"byteOffset":15816,
			"target":34962
		},
		{
			"buffer":0,
			"byteLength":6720,
			"byteOffset":21088,
			"target":34963
		},
		{
			"buffer":0,
			"byteLength":80436,
			"byteOffset":27808,
			"target":34962
		},
		{
			"buffer":0,
			"byteLength":80436,
			"byteOffset":108244,
			"target":34962
		},
		{
			"buffer":0,
			"byteLength":53624,
			"byteOffset":188680,
			"target":34962
		},
		{
			"buffer":0,
			"byteLength":57696,
			"byteOffset":242304,
			"target":34963
		},
		{
			"buffer":0,
			"byteLength":682392,
			"byteOffset":300000,
			"target":34962
		},
		{
			"buffer":0,
			"byteLength":682392,
			"byteOffset":982392,
			"target":34962
		},
		{
			"buffer":0,
			"byteLength":454928,
			"byteOffset":1664784,
			"target":34962
		},
		{
			"buffer":0,
			"byteLength":482304,
			"byteOffset":2119712,
			"target":34963
		}
	],
	"buffers":[
		{
			"byteLength":2602016,
			"uri":"scene.bin"
		}
	]
}
